<?xml version="1.0" encoding="UTF-8" standalone="no"?>
<!-- Created with Inkscape (http://www.inkscape.org/) -->

<svg
   width="48"
   height="48"
   viewBox="0 0 12.7 12.7"
   version="1.1"
   id="svg5"
   inkscape:version="1.1 (c4e8f9ed74, 2021-05-24)"
   sodipodi:docname="INSTANT_HEAL.svg"
   xmlns:inkscape="http://www.inkscape.org/namespaces/inkscape"
   xmlns:sodipodi="http://sodipodi.sourceforge.net/DTD/sodipodi-0.dtd"
   xmlns:xlink="http://www.w3.org/1999/xlink"
   xmlns="http://www.w3.org/2000/svg"
   xmlns:svg="http://www.w3.org/2000/svg">
  <sodipodi:namedview
     id="namedview7"
     pagecolor="#ffffff"
     bordercolor="#000000"
     borderopacity="1"
     inkscape:pageshadow="0"
     inkscape:pageopacity="0"
     inkscape:pagecheckerboard="true"
     inkscape:document-units="px"
     showgrid="false"
     inkscape:zoom="10.444791"
     inkscape:cx="25.036403"
     inkscape:cy="16.898375"
     inkscape:window-width="1902"
     inkscape:window-height="1027"
     inkscape:window-x="9"
     inkscape:window-y="44"
     inkscape:window-maximized="1"
     inkscape:current-layer="layer1"
     borderlayer="true" />
  <defs
     id="defs2">
    <linearGradient
       id="fg"
       inkscape:swatch="solid"
       gradientTransform="matrix(2.7777778,0,0,2.7777778,28,28.444445)">
      <stop
         style="stop-color:#e20000;stop-opacity:1;"
         offset="0"
         id="stop10820" />
    </linearGradient>
    <symbol
       id="heart">
      <title
         id="title9284">heart</title>
      <path
         d="M11.2 3c-.52-.63-1.25-.95-2.2-1-.97 0-1.69.42-2.2 1-.51.58-.78.92-.8 1-.02-.08-.28-.42-.8-1-.52-.58-1.17-1-2.2-1-.95.05-1.69.38-2.2 1-.52.61-.78 1.28-.8 2 0 .52.09 1.52.67 2.67C1.25 8.82 3.01 10.61 6 13c2.98-2.39 4.77-4.17 5.34-5.33C11.91 6.51 12 5.5 12 5c-.02-.72-.28-1.39-.8-2.02V3z"
         id="path9286" />
    </symbol>
    <linearGradient
       inkscape:collect="always"
       xlink:href="#fg"
       id="linearGradient11449"
       gradientUnits="userSpaceOnUse"
       x1="-0.31488749"
       y1="7.4999956"
       x2="12.314887"
       y2="7.4999956" />
    <linearGradient
       inkscape:collect="always"
       xlink:href="#fg"
       id="linearGradient11748"
       gradientUnits="userSpaceOnUse"
       x1="-0.31488749"
       y1="7.4999956"
       x2="12.314887"
       y2="7.4999956" />
  </defs>
  <g
     inkscape:label="Layer 1"
     inkscape:groupmode="layer"
     id="layer1">
    <g
       id="use10400"
       style="fill:url(#fg);stroke:none"
       transform="matrix(0.44097222,0,0,0.44097222,0,2.8222222)">
      <title
         id="title17437">heart</title>
      <path
         id="path17439"
         style="stroke-width:1.66667"
         d="M 5,14 C 3.4166667,14.083333 2.1839844,14.632682 1.3339844,15.666016 0.46731771,16.682682 0.03333333,17.8 0,19 0,19.866667 0.15052084,21.532552 1.1171875,23.449219 2.0838542,25.365885 5.0166667,28.350651 10,32.333984 c 0.956681,-0.76727 1.837335,-1.497743 2.646484,-2.189453 -0.07022,-0.124442 -0.136373,-0.246453 -0.197265,-0.367187 C 11.202831,27.306058 11,25.140845 11,23.986328 a 0.97365895,0.97365891 0 0 1 0,-0.02734 c 0.04604,-1.657452 0.669422,-3.234739 1.832031,-4.601562 1.207963,-1.465734 3.003572,-2.242986 5.103516,-2.353516 A 0.97365895,0.97365891 0 0 1 17.988281,17 c 0.584596,0 1.124873,0.06698 1.626953,0.185547 -0.219875,-0.533947 -0.535125,-1.051045 -0.949218,-1.552735 v 0.0332 C 17.799349,14.616016 16.583333,14.083333 15,14 13.383333,14 12.183984,14.699349 11.333984,15.666016 10.483984,16.632682 10.033333,17.200651 10,17.333984 9.9666667,17.200651 9.5326823,16.632682 8.6660156,15.666016 7.799349,14.699349 6.7166667,14 5,14 Z m 13.015625,4.957031 c -1.688015,0.09504 -2.852706,0.630526 -3.683594,1.640625 a 0.97365895,0.97365891 0 0 1 -0.01172,0.01172 c -0.91471,1.073026 -1.33067,2.173813 -1.367187,3.394531 10e-4,0.921797 0.15587,2.722585 1.197266,4.822266 2.513267,-2.266939 4.10362,-4.061514 4.75,-5.376953 0.837844,-1.705086 1.05257,-3.212607 1.091797,-4.117188 -0.540328,-0.237882 -1.173565,-0.371296 -1.976563,-0.375 z"
         transform="matrix(0.6,0,0,0.6,0,-6.4)" />
    </g>
    <g
       id="use10402"
       style="fill:url(#fg);stroke:none"
       transform="matrix(0.44097222,0,0,0.44097222,7.4083333,2.8222222)">
      <title
         id="title17444">heart</title>
      <path
         id="path17446"
         style="stroke-width:1.66667"
         d="M 33 14 C 31.416667 14.083333 30.183984 14.632682 29.333984 15.666016 C 28.919612 16.152106 28.604661 16.661417 28.384766 17.191406 C 28.894602 17.068351 29.436074 17 30.011719 17 A 0.97365895 0.97365891 0 0 1 30.064453 17.003906 C 32.119279 17.112055 33.864363 17.866389 35.085938 19.292969 A 0.97365895 0.97365891 0 0 1 35.171875 19.316406 C 36.328353 20.717524 36.953879 22.298614 37 23.958984 A 0.97365895 0.97365891 0 0 0 37 23.960938 A 0.97365895 0.97365891 0 0 0 37 23.962891 A 0.97365895 0.97365891 0 0 0 37 23.964844 A 0.97365895 0.97365891 0 0 0 37 23.966797 A 0.97365895 0.97365891 0 0 0 37 23.96875 A 0.97365895 0.97365891 0 0 0 37 23.970703 A 0.97365895 0.97365891 0 0 0 37 23.972656 A 0.97365895 0.97365891 0 0 0 37 23.974609 A 0.97365895 0.97365891 0 0 0 37 23.976562 A 0.97365895 0.97365891 0 0 0 37 23.978516 A 0.97365895 0.97365891 0 0 0 37 23.980469 A 0.97365895 0.97365891 0 0 0 37 23.982422 A 0.97365895 0.97365891 0 0 0 37 23.984375 A 0.97365895 0.97365891 0 0 0 37 23.986328 C 37 25.105255 36.797366 27.280315 35.574219 29.769531 C 35.511045 29.898096 35.440871 30.027883 35.367188 30.160156 C 36.170599 30.848096 37.047331 31.572486 38 32.333984 C 42.966667 28.350651 45.950391 25.382552 46.900391 23.449219 C 47.850391 21.515885 48 19.833333 48 19 C 47.966667 17.8 47.532682 16.682812 46.666016 15.632812 L 46.666016 15.666016 C 45.799349 14.616016 44.583333 14.083333 43 14 C 41.383333 14 40.183984 14.699349 39.333984 15.666016 C 38.483984 16.632682 38.033333 17.200651 38 17.333984 C 37.966667 17.200651 37.532682 16.632682 36.666016 15.666016 C 35.799349 14.699349 34.716667 14 33 14 z M 29.984375 18.957031 C 29.224008 18.961075 28.574761 19.107737 28.007812 19.359375 C 28.049496 20.285038 28.270701 21.770841 29.117188 23.449219 C 29.776185 24.755852 31.349886 26.560924 33.863281 28.837891 C 34.890428 26.71433 35.045854 24.882872 35.046875 24.003906 C 35.010841 22.798168 34.588577 21.707745 33.6875 20.601562 A 0.97365895 0.97365891 0 0 1 33.671875 20.597656 C 32.816967 19.561904 31.678351 19.052085 29.984375 18.957031 z "
         transform="matrix(0.6,0,0,0.6,-16.8,-6.4)" />
    </g>
    <use
       xlink:href="#heart"
       style="display:inline;fill:url(#linearGradient11449);fill-opacity:1;stroke:none;stroke-width:0.971521;stroke-linejoin:round;stroke-miterlimit:4;stroke-dasharray:none;stroke-opacity:1;paint-order:stroke fill markers"
       id="use10300"
       transform="matrix(0.53032845,0,0,0.53032843,3.1680293,3.6948724)"
       x="0"
       y="0"
       width="100%"
       height="100%"
       inkscape:label="o" />
    <g
       id="path11585"
       style="fill:#41e403;fill-opacity:1;stroke:#000000;stroke-width:0.971521;stroke-linejoin:round;paint-order:stroke fill markers"
       transform="matrix(0.53027812,0,0,0.5302781,3.1683313,3.6952496)" />
    <g
       id="g17435"
       style="fill:#41e403;fill-opacity:1;stroke:#000000;stroke-width:0.971521;stroke-linejoin:round;paint-order:stroke fill markers"
       transform="matrix(0.53027812,0,0,0.5302781,3.1683313,3.6952496)" />
  </g>
</svg>
